
nColumns=19
nRows=43
DataType=double
version=3
OpenSimVersion=4.4-2022-10-11-798caa840
endheader
time	ground_force_calcn_r_vx	ground_force_calcn_r_vy	ground_force_calcn_r_vz	ground_force_calcn_r_px	ground_force_calcn_r_py	ground_force_calcn_r_pz	ground_force_calcn_r_mx	ground_force_calcn_r_my	ground_force_calcn_r_mz	ground_force_calcn_l_vx	ground_force_calcn_l_vy	ground_force_calcn_l_vz	ground_force_calcn_l_px	ground_force_calcn_l_py	ground_force_calcn_l_pz	ground_force_calcn_l_mx	ground_force_calcn_l_my	ground_force_calcn_l_mz
1.24	-166.828	208.804	-72.9079	-0.14005	0	-0.432558	-0.410133	0.513328	-0.179238	-86.2059	79.8274	20.2122	-0.143177	0	-0.784209	0.104491	-0.0967596	-0.0244994
1.25	-281.99	862.01	-133.119	-0.201682	0	-0.455037	-0.37243	1.13847	-0.175813	-238.547	367.838	54.7368	-0.198418	0	-0.773177	0.211683	-0.326414	-0.0485727
1.26	-124.063	1530.57	-37.3886	-0.232041	0	-0.469615	0.377657	-4.65916	0.113814	-141.841	744.506	38.674	-0.253308	0	-0.757414	-0.404869	2.12511	0.110391
1.27	-141.795	1306.21	21.246	-0.227745	0	-0.473723	0.811181	-7.47253	-0.121544	-14.0727	994.96	-12.8088	-0.27625	0	-0.748911	-0.09263540000000001	6.54945	-0.0843156
1.28	-253.752	703.775	-26.6108	-0.193836	0	-0.46642	1.58577	-4.39809	0.166299	-79.6405	718.677	5.77695	-0.262028	0	-0.750563	-0.710383	6.41051	0.0515296
1.29	-300.265	438.467	-54.3861	-0.151192	0	-0.456545	1.09853	-1.60415	0.198974	-186.056	446.507	50.7287	-0.220451	0	-0.759558	-1.01607	2.43841	0.277034
1.3	-281.565	424.625	-41.0989	-0.150896	0	-0.458402	1.12278	-1.69325	0.163888	-219.718	373.889	57.9211	-0.195175	0	-0.76158	-0.441894	0.751961	0.11649
1.31	-218.336	546.98	-16.9103	-0.179644	0	-0.466376	1.17458	-2.94257	0.0909717	-204.674	377.097	40.8001	-0.197135	0	-0.758335	-0.872896	1.60825	0.174005
1.32	-132.402	690.378	-6.24943	-0.203901	0	-0.470992	0.758203	-3.95348	0.0357876	-162.599	423.599	21.4378	-0.213667	0	-0.753947	-1.33615	3.48091	0.176164
1.33	-75.71250000000001	720.263	-6.68321	-0.214563	0	-0.471597	0.448788	-4.26938	0.039615	-103.642	497.79	11.337	-0.233986	0	-0.749899	-1.01688	4.88404	0.111233
1.34	-45.7769	681.413	-7.4193	-0.219331	0	-0.470884	0.302973	-4.50991	0.0491044	-64.0288	551.787	17.1449	-0.245712	0	-0.748896	-0.599614	5.16734	0.160557
1.35	-24.2834	613.496	-8.70669	-0.222069	0	-0.469518	0.204772	-5.17335	0.07341979999999999	-61.6972	562.785	25.4278	-0.247247	0	-0.749856	-0.561522	5.12204	0.231425
1.36	-20.5572	517.776	-6.48186	-0.2206	0	-0.467591	0.234583	-5.90846	0.07396610000000001	-73.4564	530.175	28.4074	-0.24252	0	-0.751319	-0.7311839999999999	5.27735	0.282766
1.37	-28.2676	426.532	-5.78129	-0.214848	0	-0.464126	0.405903	-6.1247	0.0830153	-79.9314	476.289	28.8975	-0.235011	0	-0.753088	-0.918019	5.47022	0.33189
1.38	-31.499	369.398	-11.2856	-0.208286	0	-0.459826	0.468398	-5.49303	0.16782	-84.1217	424.991	28.0293	-0.225623	0	-0.755153	-1.08717	5.4925	0.362245
1.39	-30.3708	352.35	-17.8007	-0.202626	0	-0.456821	0.389194	-4.51527	0.228111	-87.1585	390.833	25.1774	-0.216582	0	-0.756618	-1.21363	5.44213	0.350581
1.4	-28.3246	352.686	-17.3174	-0.197103	0	-0.455887	0.314017	-3.91	0.191987	-87.02079999999999	374.781	21.8552	-0.209659	0	-0.7571639999999999	-1.25313	5.39696	0.314721
1.41	-30.0437	361.482	-10.0554	-0.19148	0	-0.457006	0.334581	-4.02564	0.111982	-85.03149999999999	369.526	19.1551	-0.204463	0	-0.75728	-1.24872	5.42663	0.281301
1.42	-34.9695	385.56	-1.91833	-0.187606	0	-0.45912	0.41364	-4.56062	0.0226911	-82.93219999999999	372.742	15.7574	-0.201567	0	-0.756899	-1.26839	5.70083	0.240999
1.43	-37.8527	413.781	1.87866	-0.185028	0	-0.460774	0.442276	-4.83468	-0.0219505	-77.4221	387.027	10.2895	-0.201938	0	-0.755777	-1.27384	6.36783	0.169296
1.44	-40.0007	427.587	0.797655	-0.181749	0	-0.460959	0.438554	-4.68792	-0.00874522	-65.2722	413.76	5.82499	-0.205903	0	-0.754281	-1.11334	7.05743	0.0993559
1.45	-43.978	422.571	-1.05945	-0.177379	0	-0.460459	0.452664	-4.34951	0.0109049	-49.6359	445.067	6.12142	-0.211501	0	-0.7531330000000001	-0.810127	7.26413	0.0999102
1.46	-47.2985	416.683	-0.465877	-0.17392	0	-0.460368	0.464327	-4.09056	0.0045735	-37.664	464.985	8.972110000000001	-0.215284	0	-0.75273	-0.5794240000000001	7.15334	0.138027
1.47	-45.4155	427.715	0.751765	-0.17387	0	-0.461036	0.405145	-3.81559	-0.00670639	-34.0997	465.629	10.1048	-0.21553	0	-0.752818	-0.5203989999999999	7.10601	0.15421
1.48	-37.8741	448.712	-0.457286	-0.176501	0	-0.461623	0.275466	-3.26357	0.00332593	-36.6953	453.692	9.82621	-0.213326	0	-0.753204	-0.57923	7.16146	0.155105
1.49	-30.3003	462.568	-2.73293	-0.179174	0	-0.461707	0.171932	-2.62474	0.0155074	-39.6521	442.548	9.929410000000001	-0.211254	0	-0.753517	-0.648017	7.23237	0.162272
1.5	-24.5684	464.438	-2.72918	-0.181009	0	-0.461796	0.118931	-2.24826	0.0132114	-38.7816	439.811	10.3773	-0.210958	0	-0.753504	-0.639918	7.25712	0.17123
1.51	-18.9671	459.384	-0.17256	-0.182427	0	-0.462329	0.0885789	-2.14539	0.000805879	-33.8455	443.885	10.2225	-0.212328	0	-0.753143	-0.55507	7.27976	0.167651
1.52	-14.1471	452.089	1.82814	-0.183087	0	-0.462761	0.0659805	-2.10849	-0.008526229999999999	-27.5362	451.159	9.532109999999999	-0.214002	0	-0.752739	-0.450178	7.37583	0.155837
1.53	-12.4288	445.977	2.44246	-0.182361	0	-0.462908	0.0585425	-2.10066	-0.0115046	-22.5241	458.945	9.14362	-0.215094	0	-0.752619	-0.374655	7.63387	0.152091
1.54	-13.3237	445.295	4.18665	-0.18107	0	-0.463611	0.0680303	-2.27367	-0.0213769	-19.4123	465.592	9.07428	-0.215331	0	-0.752924	-0.335544	8.047800000000001	0.15685
1.55	-11.6885	454.55	7.77188	-0.180513	0	-0.464959	0.0679312	-2.64175	-0.0451685	-16.9126	473.588	9.11786	-0.214702	0	-0.7534	-0.303533	8.499549999999999	0.163639
1.56	-6.17734	473.545	9.882389999999999	-0.180048	0	-0.466006	0.0393054	-3.01309	-0.06288000000000001	-14.8489	482.9	9.73143	-0.212988	0	-0.7540519999999999	-0.27012	8.78454	0.177026
1.57	-4.18317	491.863	9.604419999999999	-0.177701	0	-0.466232	0.0275249	-3.23641	-0.06319619999999999	-14.9197	488.777	10.8968	-0.210012	0	-0.754985	-0.270022	8.84604	0.197213
1.58	-7.18441	503.448	8.549860000000001	-0.173406	0	-0.465801	0.0476812	-3.34126	-0.0567434	-16.9274	489.998	11.6661	-0.206056	0	-0.755904	-0.30478	8.822469999999999	0.21005
1.59	-11.9353	510.794	6.86432	-0.168232	0	-0.465265	0.0781048	-3.34265	-0.0449203	-19.4767	488.772	11.8885	-0.201749	0	-0.75631	-0.351062	8.81	0.214287
1.6	-17.3319	514.5410000000001	5.03136	-0.162958	0	-0.464862	0.108724	-3.22773	-0.0315619	-21.4571	485.98	11.547	-0.197876	0	-0.75627	-0.388531	8.79979	0.209085
1.61	-23.0368	513.609	3.8436	-0.15787	0	-0.464607	0.136466	-3.04254	-0.0227689	-22.1852	482.334	9.418139999999999	-0.194378	0	-0.755842	-0.407315	8.85553	0.172915
1.62	-28.0739	510.206	2.59223	-0.153499	0	-0.464041	0.15371	-2.79348	-0.014193	-20.9231	479.358	5.24408	-0.191409	0	-0.75486	-0.390889	8.95542	0.0979705
1.63	-31.0762	504.308	1.18495	-0.150038	0	-0.463559	0.154558	-2.50819	-0.00589335	-18.2475	477.362	1.43837	-0.188862	0	-0.753567	-0.341453	8.932550000000001	0.0269152
1.64	-31.0299	497.434	-0.0753462	-0.147501	0	-0.463048	0.14302	-2.29273	0.000347278	-15.1891	475.174	0.399958	-0.18691	0	-0.75276	-0.277331	8.675990000000001	0.00730265
1.65	-28.5548	490.523	-1.38203	-0.145816	0	-0.462414	0.124428	-2.13747	0.00602225	-11.8367	472.508	2.39873	-0.185644	0	-0.752587	-0.202924	8.10055	0.0411231
1.66	-24.3456	484.173	-2.83339	-0.144738	0	-0.461703	0.104726	-2.08273	0.0121881	-8.57728	469.298	6.44784	-0.184584	0	-0.752876	-0.132643	7.25741	0.099712
